<svg xmlns="http://www.w3.org/2000/svg" height="48" viewBox="0 -960 960 960" width="48" fill="white"><path d="M446-491v90q0 13.325 9.658 23.662Q465.316-367 480.158-367T505-377.038q10-10.037 10-23.962v-90h89q13.75 0 24.375-10.083T639-525.158Q639-540 629.1-550q-9.9-10-25.1-10h-89v-89q0-13.75-9.95-24.375Q495.099-684 479.825-684q-14.85 0-24.338 9.9Q446-664.2 446-649v89h-90q-13.325 0-23.662 9.95Q322-540.099 322-525.325q0 14.35 9.612 24.338Q341.225-491 356-491h90ZM149-178q-37.175 0-64.088-26.913Q58-231.825 58-269v-501q0-37.588 26.912-64.794Q111.825-862 149-862h662q37.588 0 64.794 27.206Q903-807.588 903-770v501q0 37.175-27.206 64.087Q848.588-178 811-178H641v33q0 20.75-13.875 33.375T595-99H366q-19.35 0-32.675-12.625Q320-124.25 320-145v-33H149Zm0-91h662v-501H149v501Zm0 0v-501 501Z"/></svg>