<svg xmlns="http://www.w3.org/2000/svg" width="100" height="123.201" viewBox="0 0 100 123.201">
  <g id="noun_Happy_140289" transform="translate(-16 -8.1)">
    <path id="Pfad_52" data-name="Pfad 52" d="M65.927,8.1A50.073,50.073,0,0,0,16,58.027V81.375c0,9.1,6.167,13.363,11.747,14.537.441,8.957,3.524,21,11.894,23.348,1.028,5.58,5.286,12.041,14.684,12.041H77.674c5.433,0,13.216-3.231,14.684-12.041,8.37-2.349,11.307-14.391,11.894-23.348C109.833,94.737,116,90.479,116,81.375V58.027A50.2,50.2,0,0,0,65.927,8.1ZM34.355,96.793c2.349.881,4.993,2.937,4.993,7.636v7.2C36.117,108.834,34.8,101.933,34.355,96.793Zm43.172,27.9h-23.2c-7.93,0-8.37-7.048-8.37-8.37v-.587C50.8,119.26,58,121.463,66.073,121.463s15.272-2.2,20.117-5.727v.587C86.044,124.253,79,124.693,77.527,124.693Zm14.978-13.069v-7.048c0-4.846,2.643-6.9,4.993-7.783C97.057,101.639,95.736,108.687,92.505,111.624Zm16.887-30.4c0,7.93-7.048,8.37-8.37,8.37-6.021,0-14.978,3.965-14.978,14.978,0,4.846-8.223,10.426-20.117,10.426-11.747,0-19.971-5.433-20.117-10.279v-.147c0-11.013-8.957-14.978-14.831-14.978-1.468,0-8.517-.441-8.517-8.37v-23.2a43.465,43.465,0,1,1,86.931,0Z" transform="translate(0 0)" fill="#c4b6b6"/>
    <path id="Pfad_53" data-name="Pfad 53" d="M50.4,61.42a3.251,3.251,0,0,0-4.405,1.468L40.12,74.342a3.251,3.251,0,0,0,1.468,4.405,2.648,2.648,0,0,0,1.468.294,3.23,3.23,0,0,0,2.937-1.762l5.874-11.454A3.382,3.382,0,0,0,50.4,61.42Z" transform="translate(11.122 24.8)" fill="#c4b6b6"/>
    <path id="Pfad_54" data-name="Pfad 54" d="M57.473,62.868A3.284,3.284,0,1,0,51.6,65.8l5.874,11.454a3.23,3.23,0,0,0,2.937,1.762,5.217,5.217,0,0,0,1.468-.294,3.382,3.382,0,0,0,1.468-4.405Z" transform="translate(16.53 24.821)" fill="#c4b6b6"/>
    <path id="Pfad_55" data-name="Pfad 55" d="M70.678,39.8A15.041,15.041,0,0,0,55.7,54.778a3.231,3.231,0,1,0,6.461,0,8.37,8.37,0,1,1,16.74,0,3.231,3.231,0,1,0,6.461,0A14.608,14.608,0,0,0,70.678,39.8Z" transform="translate(18.597 14.849)" fill="#c4b6b6"/>
    <path id="Pfad_56" data-name="Pfad 56" d="M50.625,58.009a3.259,3.259,0,0,0,3.231-3.231,14.978,14.978,0,0,0-29.956,0,3.231,3.231,0,0,0,6.461,0,8.366,8.366,0,0,1,8.37-8.37,8.462,8.462,0,0,1,8.37,8.37A3.526,3.526,0,0,0,50.625,58.009Z" transform="translate(3.701 14.849)" fill="#c4b6b6"/>
    <path id="Pfad_57" data-name="Pfad 57" d="M63.7,27.277a3.259,3.259,0,0,0,3.231,3.231,8.366,8.366,0,0,1,8.37,8.37,3.231,3.231,0,1,0,6.461,0A15.041,15.041,0,0,0,66.784,23.9,3.271,3.271,0,0,0,63.7,27.277Z" transform="translate(22.344 7.401)" fill="#c4b6b6"/>
    <path id="Pfad_58" data-name="Pfad 58" d="M27.277,42.062a3.259,3.259,0,0,0,3.231-3.231,8.366,8.366,0,0,1,8.37-8.37,3.231,3.231,0,0,0,0-6.461A15.041,15.041,0,0,0,23.9,38.978,3.271,3.271,0,0,0,27.277,42.062Z" transform="translate(3.701 7.448)" fill="#c4b6b6"/>
  </g>
</svg>
