<svg xmlns="http://www.w3.org/2000/svg" height="48" viewBox="0 -960 960 960" width="48" fill="white"><path d="M412-189v-100H150q-37.175 0-64.088-27.206Q59-343.413 59-381v-389q0-37.588 26.912-64.794Q112.825-862 150-862h660q37.588 0 64.794 27.206Q902-807.588 902-770v389q0 37.587-27.206 64.794Q847.588-289 810-289H548v100h41q18.375 0 31.688 13.375Q634-162.249 634-143.509q0 18.741-13.312 32.125Q607.375-98 589-98H372q-19.35 0-32.675-13.56Q326-125.119 326-143.86q0-18.74 13.325-31.94Q352.65-189 372-189h40ZM150-381h660v-389H150v389Zm0 0v-389 389Z"/></svg>