<svg version="1.0" xmlns="http://www.w3.org/2000/svg"
 width="128.000000pt" height="82.5000000pt" viewBox="0 0 1280.000000 825.000000"
 preserveAspectRatio="xMidYMid meet">
<g transform="translate(0.000000,825.000000) scale(0.100000,-0.100000)"
fill="#ffffff" stroke="none">
<path d="M2870 8230 c-370 -79 -762 -394 -1157 -930 -776 -1054 -1451 -2859
-1653 -4415 -44 -340 -54 -500 -54 -860 0 -366 10 -507 54 -755 135 -749 488
-1174 1043 -1256 264 -39 525 12 787 153 249 134 457 300 750 599 257 262 426
464 860 1029 139 182 295 381 347 442 l94 113 2459 0 2459 0 94 -113 c52 -61
220 -276 375 -477 456 -594 628 -795 918 -1080 246 -240 416 -374 629 -494
278 -156 547 -213 822 -172 129 19 235 52 344 107 679 340 915 1448 654 3064
-210 1300 -740 2753 -1371 3764 -204 326 -395 571 -619 797 -265 266 -479 405
-731 476 -79 23 -84 23 -934 26 -830 3 -856 2 -920 -17 -85 -26 -209 -105
-410 -261 -181 -140 -280 -204 -357 -232 -49 -17 -104 -18 -953 -18 -849 0
-904 1 -953 18 -77 28 -176 92 -357 232 -200 155 -324 234 -408 260 -62 19
-93 20 -896 19 -764 0 -838 -2 -916 -19z m6713 -1244 c105 -25 197 -106 233
-208 20 -55 20 -161 0 -216 -83 -232 -381 -295 -546 -116 -65 70 -85 123 -85
224 0 65 5 96 21 131 42 90 125 159 223 185 60 16 84 16 154 0z m-6223 -491
l0 -355 355 0 355 0 -2 -236 -3 -235 -352 1 -353 0 -2 -357 -3 -358 -237 -3
-238 -2 0 360 0 360 -355 0 -355 0 0 235 0 235 355 0 355 0 0 355 0 355 240 0
240 0 0 -355z m5423 -309 c108 -25 207 -118 237 -222 18 -62 9 -180 -18 -236
-31 -63 -96 -126 -162 -157 -80 -37 -192 -36 -271 2 -66 32 -132 99 -162 165
-31 66 -31 198 -1 263 43 92 132 165 231 188 55 13 81 12 146 -3z m1684 -26
c113 -56 178 -161 178 -290 0 -65 -5 -85 -33 -142 -58 -119 -161 -183 -292
-183 -132 1 -234 65 -292 183 -28 57 -33 76 -33 142 1 60 6 87 27 131 80 174
273 243 445 159z m-805 -808 c64 -31 126 -96 157 -162 34 -73 36 -191 4 -262
-30 -66 -95 -133 -162 -165 -48 -24 -68 -28 -141 -28 -73 0 -93 4 -142 28
-167 82 -234 293 -142 453 31 55 114 129 167 148 64 24 199 17 259 -12z
m-4507 -1287 c241 -51 446 -255 501 -501 34 -154 4 -333 -78 -472 -52 -89
-160 -191 -253 -239 -107 -55 -189 -76 -305 -76 -256 -1 -480 139 -590 368
-50 105 -64 169 -63 285 1 257 138 473 370 586 127 62 275 79 418 49z m2768 0
c137 -29 284 -121 371 -231 96 -122 139 -252 139 -414 -1 -185 -66 -333 -204
-465 -127 -121 -273 -179 -449 -178 -177 1 -333 65 -455 188 -123 124 -183
257 -192 425 -7 123 13 220 69 333 82 164 260 303 438 341 85 19 199 19 283 1z"/>
</g>
</svg>
