<svg xmlns="http://www.w3.org/2000/svg" height="48" viewBox="0 -960 960 960" width="48" fill="white"><path d="M481.958-250q17.522 0 31.282-13.458Q527-276.915 527-294.937q0-18.021-13.718-31.042Q499.565-339 481.542-339q-18.022 0-31.282 12.899Q437-313.202 437-294.521 437-277 450.348-263.5q13.347 13.5 31.61 13.5Zm-2.013 191q-87.053 0-164.146-32.604-77.094-32.603-134.343-89.852-57.249-57.249-89.852-134.41Q59-393.028 59-480.362q0-87.228 32.662-163.934 32.663-76.706 90.203-134.253 57.54-57.547 134.252-90.499Q392.829-902 479.836-902q87.369 0 164.544 32.858 77.175 32.858 134.401 90.257 57.225 57.399 90.222 134.514Q902-567.257 902-479.724q0 87.468-32.952 163.882t-90.499 133.781q-57.547 57.367-134.421 90.214Q567.255-59 479.945-59Zm1.173-585q24.355 0 42.619 16.429Q542-611.143 542-588.626q0 22.926-13.148 39.705Q515.705-532.143 499-519q-22 20-39 43.846-17 23.846-17 52.154 0 12.242 9.9 20.621Q462.8-394 476-394q14.083 0 24.917-9.5 10.833-9.5 15.226-23.833Q520-443 530.591-458.562q10.591-15.563 24.64-26.222Q579-505 594-532.838t15-56.176Q609-641 573.5-676.5 538-712 488.567-712q-38.845 0-72.706 16.5Q382-679 358.32-650.133 350-638 350.469-623.515q.469 14.486 11.82 23.448Q377.385-593 393.115-596q15.731-3 24.885-15 9.75-13.903 26.881-23.452Q462.012-644 481.118-644Z"/></svg>