<?xml version="1.0" encoding="utf-8"?>
<!-- Generator: Adobe Illustrator 27.9.0, SVG Export Plug-In . SVG Version: 6.00 Build 0)  -->
<svg version="1.1" id="keyboard" xmlns="http://www.w3.org/2000/svg" xmlns:xlink="http://www.w3.org/1999/xlink" x="0px" y="0px"
	 viewBox="0 0 24 24" style="enable-background:new 0 0 24 24;" xml:space="preserve">
<style type="text/css">
	.st0{fill:none;}
	.st1{fill:#FFFFFF;}
</style>
<path class="st0" d="M0,0h24v24H0V0z M0,0h24v24H0V0z"/>
<path class="st1" d="M20,7v10H4V7H20 M20,5H4C2.9,5,2,5.9,2,7l0,10c0,1.1,0.9,2,2,2h16c1.1,0,2-0.9,2-2V7C22,5.9,21.1,5,20,5z M11,8
	h2v2h-2V8z M11,11h2v2h-2V11z M8,8h2v2H8V8z M8,11h2v2H8V11z M5,11h2v2H5V11z M5,8h2v2H5V8z M8,14h8v2H8V14z M14,11h2v2h-2V11z
	 M14,8h2v2h-2V8z M17,11h2v2h-2V11z M17,8h2v2h-2V8z"/>
</svg>
