<svg xmlns="http://www.w3.org/2000/svg" height="48" viewBox="0 -960 960 960" width="48" fill="white"><path d="M229-62q-36.775 0-63.888-27.112Q138-116.225 138-153v-415q0-38.588 27.112-65.294Q192.225-660 229-660h53v-74q0-83.965 57.921-142.483Q397.843-935 479.731-935q81.889 0 140.079 58.517Q678-817.965 678-734v74h53q37.188 0 64.594 26.706Q823-606.588 823-568v415q0 36.775-27.406 63.888Q768.188-62 731-62H229Zm251.248-223Q512-285 533.5-306.615q21.5-21.616 21.5-51.969Q555-388 533.252-412q-21.748-24-53.5-24T426.5-412.064Q405-388.128 405-358.42q0 30.12 21.748 51.77 21.748 21.65 53.5 21.65ZM373-660h214v-73.769q0-47.731-30.973-78.481Q525.054-843 480.235-843q-44.818 0-76.027 30.75Q373-781.5 373-733.769V-660Z"/></svg>