<?xml version="1.0" encoding="UTF-8" standalone="no"?>
<svg
   xmlns:dc="http://purl.org/dc/elements/1.1/"
   xmlns:cc="http://creativecommons.org/ns#"
   xmlns:rdf="http://www.w3.org/1999/02/22-rdf-syntax-ns#"
   xmlns:svg="http://www.w3.org/2000/svg"
   xmlns="http://www.w3.org/2000/svg"
   id="svg3761"
   viewBox="0 0 680 680"
   height="680"
   width="680"
   version="1.0">
  <metadata
     id="metadata3767">
    <rdf:RDF>
      <cc:Work
         rdf:about="">
        <dc:format>image/svg+xml</dc:format>
        <dc:type
           rdf:resource="http://purl.org/dc/dcmitype/StillImage" />
        <dc:title></dc:title>
      </cc:Work>
    </rdf:RDF>
  </metadata>
  <defs
     id="defs3765" />
  <g
     id="g3759"
     transform="translate(-135,491) scale(0.100000,-0.100000)">
    <circle
       id="circle3741"
       fill="#565C64"
       r="3400"
       cy="1505"
       cx="4755" />
    <path
       id="path3743"
       style="fill:#ffffff"
       d="M4550 4230 c-582 -48 -1123 -271 -1568 -646 l-84 -70 869 -869 c477 -477 871 -868 876 -868 4 0 6 552 5 1228 l-3 1227 -25 1 c-14 0 -45 -1 -70 -3z" />
    <path
       id="path3745"
       style="fill:#ffffff"
       d="M4867 4230 c-10 -9 -9 -2453 1 -2453 4 0 398 391 875 868 l869 869 -84 70 c-344 290 -749 492 -1178 587 -166 36 -469 74 -483 59z" />
    <path
       id="path3747"
       style="fill:#ffffff"
       d="M2673 3275 c-241 -285 -412 -595 -526 -953 -63 -196 -111 -458 -119 -640 l-3 -70 1228 -3 c675 -1 1227 1 1227 5 0 5 -391 399 -868 876 l-869 869 -70 -84z" />
    <path
       id="path3749"
       style="fill:#ffffff"
       d="M5898 2490 c-478 -477 -868 -871 -868 -876 0 -4 552 -6 1228 -5 l1227 3 -3 70 c-14 326 -124 729 -287 1055 -91 182 -259 430 -387 573 l-43 48 -867 -868z" />
    <path
       id="path3751"
       style="fill:#ffffff"
       d="M2026 1388 c-7 -11 10 -198 30 -321 76 -486 291 -952 617 -1338 l70 -84 869 869 c477 477 868 871 868 875 0 11 -2448 10 -2454 -1z" />
    <path
       id="path3753"
       style="fill:#ffffff"
       d="M5030 1390 c0 -5 391 -399 868 -876 l869 -869 70 84 c241 285 412 595 526 953 63 196 111 458 119 640 l3 70 -1227 3 c-676 1 -1228 -1 -1228 -5z" />
    <path
       id="path3755"
       style="fill:#ffffff"
       d="M3767 359 l-869 -869 84 -70 c285 -241 595 -412 953 -526 196 -63 458 -111 640 -119 l70 -3 3 1228 c1 675 -1 1227 -5 1227 -5 0 -399 -391 -876 -868z" />
    <path
       id="path3757"
       style="fill:#ffffff"
       d="M4862 0 l3 -1228 70 3 c182 8 444 56 640 119 358 114 668 285 953 526 l84 70 -869 869 c-477 477 -871 868 -876 868 -4 0 -6 -552 -5 -1227z" />
  </g>
</svg>
