<svg height="2500" viewBox="164.3 112 694.5 806.7" width="1908" xmlns="http://www.w3.org/2000/svg"><path d="m824.8 613.2c-16-51.4-34.4-94.6-62.7-165.3 4.4-185.7-72.8-335.9-250.6-335.9-179.8 0-255.3 153.2-250.5 335.9-28.4 70.8-46.7 113.7-62.7 165.3-34 109.5-23 154.8-14.6 155.8 18 2.2 70.1-82.4 70.1-82.4 0 49 25.2 112.9 79.8 159-26.4 8.1-85.7 29.9-71.6 53.8 11.4 19.3 196.2 12.3 249.5 6.3 53.3 6 238.1 13 249.5-6.3 14.1-23.8-45.3-45.7-71.6-53.8 54.6-46.2 79.8-110.1 79.8-159 0 0 52.1 84.6 70.1 82.4 8.5-1.1 19.5-46.4-14.5-155.8z" fill="#1296db"/></svg>