<svg xmlns="http://www.w3.org/2000/svg" height="48" viewBox="0 -960 960 960" width="48" fill="white"><path d="M408-59q-18 0-31-10.5T363-98l-15-94q-14-4-31-14t-28-19l-86 41q-15 6-32.5 1.5T144-204L72-332q-10-16-5-32.5T85-391l80-59q-1-5-1-14.5v-30q0-8.5 1-15.5l-81-58q-13-11-17.5-27.5T72-628l72-127q9-16 26.5-21t32.5 0l88 41q10-7 27-17t30-14l15-98q1-16 14.5-27t31.5-11h143q17 0 30.5 11t15.5 27l14 97q15 4 31.5 14t27.5 18l86-41q15-5 32.5 0t26.5 21l73 126q9 16 5 33t-19 28l-81 55q1 8 2.5 17t1.5 16q0 7-1.5 15.5T794-449l81 58q13 10 18.5 26.5T890-332l-74 128q-10 17-27 21.5t-32-1.5l-86-41q-11 9-28.5 19.5T613-192l-15 94q-2 18-15 28.5T552-59H408Zm71-294q53 0 90-37t37-90q0-52-37-89.5T479-607q-54 0-90.5 37.5T352-480q0 53 36.5 90t90.5 37Z"/></svg>