<svg xmlns="http://www.w3.org/2000/svg" xmlns:xlink="http://www.w3.org/1999/xlink" fill="#000000" height="800px" width="800px" version="1.1" id="Capa_1" viewBox="0 0 409.952 409.952" xml:space="preserve">
<g>
        <path d="M298.809,287.873c-21.789,31.978-47.21,63.656-70.192,87.398c-8.04,8.306-15.595,15.467-22.582,21.418   c68.588-1.306,133.022-38.713,97.567-101.286C302.02,292.817,300.42,290.313,298.809,287.873z"/>
        <path d="M145.994,320.097c0-15.807,12.813-28.629,28.627-28.629c2.075,0,4.097,0.227,6.047,0.646   c11.107-20.724,23.954-42.066,37.637-62.407c10.651-15.833,20.518-29.121,29.712-39.999c-1.568-16.001-0.427-35.044,4.534-58.906   C277.598,10.335,72.483-74.035,12.371,120.624C-24.844,240.855,23.82,331.027,132.598,382.553c3.719,1.727,7.566,3.29,11.516,4.693   c1.009-11.445,5.235-26.422,12.644-44.788C150.198,337.214,145.994,329.15,145.994,320.097z M48.927,180.699   c0-15.814,12.816-28.631,28.628-28.631c15.807,0,28.627,12.816,28.627,28.631c0,15.806-12.82,28.628-28.627,28.628   C61.744,209.327,48.927,196.504,48.927,180.699z M101.888,291.468c-15.813,0-28.629-12.813-28.629-28.621   c0-15.815,12.815-28.631,28.629-28.631c15.808,0,28.629,12.816,28.629,28.631C130.517,278.656,117.696,291.468,101.888,291.468z    M125.526,81.94c0-20.144,16.335-36.477,36.477-36.477s36.47,16.333,36.47,36.477c0,20.142-16.328,36.472-36.47,36.472   S125.526,102.081,125.526,81.94z"/>
        <path d="M302.786,188.889c-0.002-0.001-0.004-0.003-0.01-0.004c-7.165-4.599-13.028-10.495-17.39-17.188   c-14.295,9.836-32.436,29.769-56.31,65.258c-48.85,72.619-84.946,155.684-68.009,166.78c1.276,0.837,2.821,1.241,4.601,1.241   c21.834,0,79.571-60.683,124.735-127.83c24.781-36.836,36.322-61.56,39.475-78.436c-4.906-0.693-9.994-1.996-15.294-3.951   C310.437,193.225,306.465,191.251,302.786,188.889z"/>
        <path d="M409.74,71.642c-0.945-4.321-4.855-7.356-9.268-7.18c-35.358,1.318-63.614,8.195-83.984,20.439   c-23.171,13.928-30.309,31.113-32.218,43.076c-1.46,9.152-0.262,18.284,3.097,26.596c5.57,13.788,17.089,25.318,32.309,30.936   c7.983,2.947,15.178,4.38,21.995,4.38c0,0,0,0,0,0c1.034,0,2.062-0.037,3.083-0.105c7.742-0.513,15.119-2.963,21.971-7.309   c20.418-12.952,18.702-34.235,17.188-53.012c-1.884-23.374-1.906-38.169,20.402-47.428C408.401,80.34,410.685,75.963,409.74,71.642   z"/>
</g>
</svg>
