<svg xmlns="http://www.w3.org/2000/svg" height="48" viewBox="0 -960 960 960" width="48" fill="#F44336"><path d="M485.463-99q-78.713 0-149.438-29.8t-122.3-81.907q-51.575-52.107-82.15-121.903Q101-402.406 101-482.203q0-79.797 30.575-148.39 30.575-68.593 82.15-119.7T336.027-831.7Q406.755-862 486-862q79 0 151 33.5T765-738v-61q0-13.775 9.561-23.388 9.562-9.612 23.5-9.612Q812-832 822-822.388q10 9.613 10 23.388v142q0 19.6-12.775 32.8Q806.45-611 787-611H643q-13.35 0-23.675-10.384Q609-631.768 609-646.184q0-15.816 9.688-25.316Q628.375-681 643-681h49q-42.273-41.267-94.97-65.133Q544.333-770 486-770q-121.582 0-207.791 82.321t-86.209 202Q192-362 277.221-276t208.539 86q109.567 0 187.903-72.059Q752-334.118 768-440q3-19 17-29t32.667-10Q836-479 849-465.5t10 30.5q-17.35 142.125-122.602 239.062Q631.147-99 485.463-99ZM517-492.741l107.802 103.568Q637-377 636.5-363.133 636-349.267 625.493-339q-11.597 12-24.791 12-13.195 0-24.702-12L462-451q-7-5.143-10-13.767-3-8.624-3-19.233v-164q0-13.775 10.158-23.388 10.158-9.612 24-9.612T507-671.388q10 9.613 10 23.388v155.259Z"/></svg>