<svg xmlns="http://www.w3.org/2000/svg" height="48" viewBox="0 -960 960 960" width="48" fill="white"><path d="M135-209q-37.813 0-64.406-26.913Q44-262.825 44-300v-360q0-36.188 26.594-64.094Q97.188-752 135-752h691q37.588 0 64.794 27.906Q918-696.188 918-660v360q0 37.175-27.206 64.087Q863.588-209 826-209H135Zm0-91h691v-360H135v360Zm151-151v78q0 10.775 8.439 19.388 8.438 8.612 20 8.612 11.561 0 20.061-8.612Q343-362.225 343-373v-78h78q11.375 0 19.688-8.64 8.312-8.641 8.312-20.5 0-11.86-8.312-19.86-8.313-8-19.688-8h-78v-79q0-11.2-8.529-20.1-8.53-8.9-20.225-8.9-11.271 0-19.759 8.9Q286-598.2 286-587v79h-78q-12.35 0-20.675 8.254Q179-491.491 179-479.93q0 11.562 8.325 20.246T208-451h78Zm314 88q18 0 31.5-13.5T645-408q0-18-13.5-31.5T600-453q-18 0-31.5 13.5T555-408q0 18 13.5 31.5T600-363Zm90-146q18 0 31.5-13t13.5-32q0-17-13.5-31T690-599q-18 0-31.5 14T645-554q0 19 13.5 32t31.5 13ZM135-300v-360 360Z"/></svg>