<svg xmlns="http://www.w3.org/2000/svg" height="48" viewBox="0 -960 960 960" width="48" fill="white"><path d="M104-112q-14.966 0-25.222-6.925Q68.522-125.85 64-136q-6.167-7.6-6.083-20.881Q58-170.161 64-182l377-650q5-11 17.103-17 12.102-6 22-6Q490-855 502-849q12 6 18 17l377 650q5 11.839 5.083 25.119Q902.167-143.6 897-136q-6.044 9.4-16.28 16.7Q870.483-112 857-112H104Zm379.86-131q13.715 0 22.928-9.37Q516-261.741 516-275.158q0-12.417-9.388-22.13Q497.224-307 483.509-307q-12.716 0-22.612 9.663Q451-287.674 451-274.825q0 13.425 10.072 22.625t22.788 9.2Zm0-105q12.14 0 20.14-8.625T512-377v-159q0-11.775-8.175-19.888Q495.649-564 483.509-564q-11.141 0-19.825 8.112Q455-547.775 455-536v159q0 11.75 8.86 20.375 8.859 8.625 20 8.625Z"/></svg>